<svg xmlns="http://www.w3.org/2000/svg" xmlns:xlink="http://www.w3.org/1999/xlink" width="1920" zoomAndPan="magnify" viewBox="0 0 1440 809.999993" height="1080" preserveAspectRatio="xMidYMid meet" version="1.0"><defs><filter x="0%" y="0%" width="100%" height="100%" id="4e6809bf6b"><feColorMatrix values="0 0 0 0 1 0 0 0 0 1 0 0 0 0 1 0 0 0 1 0" color-interpolation-filters="sRGB"/></filter><linearGradient x1="960" gradientTransform="matrix(0.75, 0, 0, 0.75, 0.00000622222, 0.00002)" y1="0" x2="960" gradientUnits="userSpaceOnUse" y2="1079.999955" id="f26ebef2ee"><stop stop-opacity="1" stop-color="rgb(100%, 36.079407%, 0%)" offset="0"/><stop stop-opacity="1" stop-color="rgb(99.845886%, 36.030579%, 0.038147%)" offset="0.0078125"/><stop stop-opacity="1" stop-color="rgb(99.539185%, 35.931396%, 0.114441%)" offset="0.015625"/><stop stop-opacity="1" stop-color="rgb(99.232483%, 35.83374%, 0.190735%)" offset="0.0234375"/><stop stop-opacity="1" stop-color="rgb(98.925781%, 35.736084%, 0.267029%)" offset="0.03125"/><stop stop-opacity="1" stop-color="rgb(98.61908%, 35.638428%, 0.343323%)" offset="0.0390625"/><stop stop-opacity="1" stop-color="rgb(98.313904%, 35.539246%, 0.419617%)" offset="0.046875"/><stop stop-opacity="1" stop-color="rgb(98.007202%, 35.441589%, 0.497437%)" offset="0.0546875"/><stop stop-opacity="1" stop-color="rgb(97.7005%, 35.343933%, 0.57373%)" offset="0.0625"/><stop stop-opacity="1" stop-color="rgb(97.393799%, 35.246277%, 0.650024%)" offset="0.0703125"/><stop stop-opacity="1" stop-color="rgb(97.087097%, 35.147095%, 0.726318%)" offset="0.078125"/><stop stop-opacity="1" stop-color="rgb(96.781921%, 35.049438%, 0.802612%)" offset="0.0859375"/><stop stop-opacity="1" stop-color="rgb(96.47522%, 34.951782%, 0.878906%)" offset="0.09375"/><stop stop-opacity="1" stop-color="rgb(96.168518%, 34.854126%, 0.956726%)" offset="0.101562"/><stop stop-opacity="1" stop-color="rgb(95.861816%, 34.754944%, 1.03302%)" offset="0.109375"/><stop stop-opacity="1" stop-color="rgb(95.555115%, 34.657288%, 1.109314%)" offset="0.117188"/><stop stop-opacity="1" stop-color="rgb(95.249939%, 34.559631%, 1.185608%)" offset="0.125"/><stop stop-opacity="1" stop-color="rgb(94.943237%, 34.461975%, 1.261902%)" offset="0.132812"/><stop stop-opacity="1" stop-color="rgb(94.636536%, 34.362793%, 1.338196%)" offset="0.140625"/><stop stop-opacity="1" stop-color="rgb(94.329834%, 34.265137%, 1.416016%)" offset="0.148437"/><stop stop-opacity="1" stop-color="rgb(94.023132%, 34.16748%, 1.49231%)" offset="0.15625"/><stop stop-opacity="1" stop-color="rgb(93.717957%, 34.069824%, 1.568604%)" offset="0.164062"/><stop stop-opacity="1" stop-color="rgb(93.411255%, 33.970642%, 1.644897%)" offset="0.171875"/><stop stop-opacity="1" stop-color="rgb(93.104553%, 33.872986%, 1.721191%)" offset="0.179687"/><stop stop-opacity="1" stop-color="rgb(92.797852%, 33.77533%, 1.799011%)" offset="0.1875"/><stop stop-opacity="1" stop-color="rgb(92.49115%, 33.676147%, 1.875305%)" offset="0.195312"/><stop stop-opacity="1" stop-color="rgb(92.185974%, 33.578491%, 1.951599%)" offset="0.203125"/><stop stop-opacity="1" stop-color="rgb(91.879272%, 33.480835%, 2.027893%)" offset="0.210938"/><stop stop-opacity="1" stop-color="rgb(91.572571%, 33.383179%, 2.104187%)" offset="0.21875"/><stop stop-opacity="1" stop-color="rgb(91.265869%, 33.283997%, 2.180481%)" offset="0.226562"/><stop stop-opacity="1" stop-color="rgb(90.959167%, 33.18634%, 2.258301%)" offset="0.234375"/><stop stop-opacity="1" stop-color="rgb(90.653992%, 33.088684%, 2.334595%)" offset="0.242188"/><stop stop-opacity="1" stop-color="rgb(90.34729%, 32.991028%, 2.410889%)" offset="0.25"/><stop stop-opacity="1" stop-color="rgb(90.040588%, 32.891846%, 2.487183%)" offset="0.257812"/><stop stop-opacity="1" stop-color="rgb(89.733887%, 32.794189%, 2.563477%)" offset="0.265625"/><stop stop-opacity="1" stop-color="rgb(89.427185%, 32.696533%, 2.639771%)" offset="0.273437"/><stop stop-opacity="1" stop-color="rgb(89.120483%, 32.598877%, 2.71759%)" offset="0.28125"/><stop stop-opacity="1" stop-color="rgb(88.815308%, 32.499695%, 2.793884%)" offset="0.289062"/><stop stop-opacity="1" stop-color="rgb(88.508606%, 32.402039%, 2.870178%)" offset="0.296875"/><stop stop-opacity="1" stop-color="rgb(88.201904%, 32.304382%, 2.946472%)" offset="0.304687"/><stop stop-opacity="1" stop-color="rgb(87.895203%, 32.206726%, 3.022766%)" offset="0.3125"/><stop stop-opacity="1" stop-color="rgb(87.588501%, 32.107544%, 3.100586%)" offset="0.320312"/><stop stop-opacity="1" stop-color="rgb(87.283325%, 32.009888%, 3.17688%)" offset="0.328125"/><stop stop-opacity="1" stop-color="rgb(86.976624%, 31.912231%, 3.253174%)" offset="0.335937"/><stop stop-opacity="1" stop-color="rgb(86.669922%, 31.814575%, 3.329468%)" offset="0.34375"/><stop stop-opacity="1" stop-color="rgb(86.36322%, 31.715393%, 3.405762%)" offset="0.351562"/><stop stop-opacity="1" stop-color="rgb(86.056519%, 31.617737%, 3.482056%)" offset="0.359375"/><stop stop-opacity="1" stop-color="rgb(85.751343%, 31.520081%, 3.559875%)" offset="0.367187"/><stop stop-opacity="1" stop-color="rgb(85.444641%, 31.422424%, 3.636169%)" offset="0.375"/><stop stop-opacity="1" stop-color="rgb(85.137939%, 31.323242%, 3.712463%)" offset="0.382812"/><stop stop-opacity="1" stop-color="rgb(84.831238%, 31.225586%, 3.788757%)" offset="0.390625"/><stop stop-opacity="1" stop-color="rgb(84.524536%, 31.12793%, 3.865051%)" offset="0.398438"/><stop stop-opacity="1" stop-color="rgb(84.21936%, 31.030273%, 3.941345%)" offset="0.40625"/><stop stop-opacity="1" stop-color="rgb(83.912659%, 30.931091%, 4.019165%)" offset="0.414062"/><stop stop-opacity="1" stop-color="rgb(83.605957%, 30.833435%, 4.095459%)" offset="0.421875"/><stop stop-opacity="1" stop-color="rgb(83.299255%, 30.735779%, 4.171753%)" offset="0.429688"/><stop stop-opacity="1" stop-color="rgb(82.992554%, 30.638123%, 4.248047%)" offset="0.4375"/><stop stop-opacity="1" stop-color="rgb(82.687378%, 30.53894%, 4.324341%)" offset="0.445312"/><stop stop-opacity="1" stop-color="rgb(82.380676%, 30.441284%, 4.402161%)" offset="0.453125"/><stop stop-opacity="1" stop-color="rgb(82.073975%, 30.343628%, 4.478455%)" offset="0.460938"/><stop stop-opacity="1" stop-color="rgb(81.767273%, 30.245972%, 4.554749%)" offset="0.46875"/><stop stop-opacity="1" stop-color="rgb(81.460571%, 30.14679%, 4.631042%)" offset="0.476562"/><stop stop-opacity="1" stop-color="rgb(81.155396%, 30.049133%, 4.707336%)" offset="0.484375"/><stop stop-opacity="1" stop-color="rgb(80.848694%, 29.951477%, 4.78363%)" offset="0.492188"/><stop stop-opacity="1" stop-color="rgb(80.541992%, 29.853821%, 4.86145%)" offset="0.5"/><stop stop-opacity="1" stop-color="rgb(80.235291%, 29.754639%, 4.937744%)" offset="0.507812"/><stop stop-opacity="1" stop-color="rgb(79.928589%, 29.656982%, 5.014038%)" offset="0.515625"/><stop stop-opacity="1" stop-color="rgb(79.621887%, 29.559326%, 5.090332%)" offset="0.523437"/><stop stop-opacity="1" stop-color="rgb(79.316711%, 29.460144%, 5.166626%)" offset="0.53125"/><stop stop-opacity="1" stop-color="rgb(79.01001%, 29.362488%, 5.24292%)" offset="0.539062"/><stop stop-opacity="1" stop-color="rgb(78.703308%, 29.264832%, 5.32074%)" offset="0.546875"/><stop stop-opacity="1" stop-color="rgb(78.396606%, 29.167175%, 5.397034%)" offset="0.554687"/><stop stop-opacity="1" stop-color="rgb(78.089905%, 29.067993%, 5.473328%)" offset="0.5625"/><stop stop-opacity="1" stop-color="rgb(77.784729%, 28.970337%, 5.549622%)" offset="0.570312"/><stop stop-opacity="1" stop-color="rgb(77.478027%, 28.872681%, 5.625916%)" offset="0.578125"/><stop stop-opacity="1" stop-color="rgb(77.171326%, 28.775024%, 5.703735%)" offset="0.585937"/><stop stop-opacity="1" stop-color="rgb(76.864624%, 28.675842%, 5.780029%)" offset="0.59375"/><stop stop-opacity="1" stop-color="rgb(76.557922%, 28.578186%, 5.856323%)" offset="0.601562"/><stop stop-opacity="1" stop-color="rgb(76.252747%, 28.48053%, 5.932617%)" offset="0.609375"/><stop stop-opacity="1" stop-color="rgb(75.946045%, 28.382874%, 6.008911%)" offset="0.617187"/><stop stop-opacity="1" stop-color="rgb(75.639343%, 28.283691%, 6.085205%)" offset="0.625"/><stop stop-opacity="1" stop-color="rgb(75.332642%, 28.186035%, 6.163025%)" offset="0.632812"/><stop stop-opacity="1" stop-color="rgb(75.02594%, 28.088379%, 6.239319%)" offset="0.640625"/><stop stop-opacity="1" stop-color="rgb(74.720764%, 27.990723%, 6.315613%)" offset="0.648437"/><stop stop-opacity="1" stop-color="rgb(74.414062%, 27.891541%, 6.391907%)" offset="0.65625"/><stop stop-opacity="1" stop-color="rgb(74.107361%, 27.793884%, 6.468201%)" offset="0.664062"/><stop stop-opacity="1" stop-color="rgb(73.800659%, 27.696228%, 6.544495%)" offset="0.671875"/><stop stop-opacity="1" stop-color="rgb(73.493958%, 27.598572%, 6.622314%)" offset="0.679687"/><stop stop-opacity="1" stop-color="rgb(73.188782%, 27.49939%, 6.698608%)" offset="0.6875"/><stop stop-opacity="1" stop-color="rgb(72.88208%, 27.401733%, 6.774902%)" offset="0.695312"/><stop stop-opacity="1" stop-color="rgb(72.575378%, 27.304077%, 6.851196%)" offset="0.703125"/><stop stop-opacity="1" stop-color="rgb(72.268677%, 27.206421%, 6.92749%)" offset="0.710937"/><stop stop-opacity="1" stop-color="rgb(71.961975%, 27.107239%, 7.00531%)" offset="0.71875"/><stop stop-opacity="1" stop-color="rgb(71.656799%, 27.009583%, 7.081604%)" offset="0.726562"/><stop stop-opacity="1" stop-color="rgb(71.350098%, 26.911926%, 7.157898%)" offset="0.734375"/><stop stop-opacity="1" stop-color="rgb(71.043396%, 26.81427%, 7.234192%)" offset="0.742187"/><stop stop-opacity="1" stop-color="rgb(70.736694%, 26.715088%, 7.310486%)" offset="0.75"/><stop stop-opacity="1" stop-color="rgb(70.429993%, 26.617432%, 7.38678%)" offset="0.757812"/><stop stop-opacity="1" stop-color="rgb(70.123291%, 26.519775%, 7.4646%)" offset="0.765625"/><stop stop-opacity="1" stop-color="rgb(69.818115%, 26.422119%, 7.540894%)" offset="0.773438"/><stop stop-opacity="1" stop-color="rgb(69.511414%, 26.322937%, 7.617188%)" offset="0.78125"/><stop stop-opacity="1" stop-color="rgb(69.204712%, 26.225281%, 7.693481%)" offset="0.789062"/><stop stop-opacity="1" stop-color="rgb(68.89801%, 26.127625%, 7.769775%)" offset="0.796875"/><stop stop-opacity="1" stop-color="rgb(68.591309%, 26.029968%, 7.846069%)" offset="0.804688"/><stop stop-opacity="1" stop-color="rgb(68.286133%, 25.930786%, 7.923889%)" offset="0.8125"/><stop stop-opacity="1" stop-color="rgb(67.979431%, 25.83313%, 8.000183%)" offset="0.820312"/><stop stop-opacity="1" stop-color="rgb(67.672729%, 25.735474%, 8.076477%)" offset="0.828125"/><stop stop-opacity="1" stop-color="rgb(67.366028%, 25.636292%, 8.152771%)" offset="0.835938"/><stop stop-opacity="1" stop-color="rgb(67.059326%, 25.538635%, 8.229065%)" offset="0.84375"/><stop stop-opacity="1" stop-color="rgb(66.75415%, 25.440979%, 8.306885%)" offset="0.851562"/><stop stop-opacity="1" stop-color="rgb(66.447449%, 25.343323%, 8.383179%)" offset="0.859375"/><stop stop-opacity="1" stop-color="rgb(66.140747%, 25.244141%, 8.459473%)" offset="0.867188"/><stop stop-opacity="1" stop-color="rgb(65.834045%, 25.146484%, 8.535767%)" offset="0.875"/><stop stop-opacity="1" stop-color="rgb(65.527344%, 25.048828%, 8.612061%)" offset="0.882812"/><stop stop-opacity="1" stop-color="rgb(65.222168%, 24.951172%, 8.688354%)" offset="0.890625"/><stop stop-opacity="1" stop-color="rgb(64.915466%, 24.85199%, 8.766174%)" offset="0.898438"/><stop stop-opacity="1" stop-color="rgb(64.608765%, 24.754333%, 8.842468%)" offset="0.90625"/><stop stop-opacity="1" stop-color="rgb(64.302063%, 24.656677%, 8.918762%)" offset="0.914062"/><stop stop-opacity="1" stop-color="rgb(63.995361%, 24.559021%, 8.995056%)" offset="0.921875"/><stop stop-opacity="1" stop-color="rgb(63.690186%, 24.459839%, 9.07135%)" offset="0.929688"/><stop stop-opacity="1" stop-color="rgb(63.383484%, 24.362183%, 9.147644%)" offset="0.9375"/><stop stop-opacity="1" stop-color="rgb(63.076782%, 24.264526%, 9.225464%)" offset="0.945312"/><stop stop-opacity="1" stop-color="rgb(62.770081%, 24.16687%, 9.301758%)" offset="0.953125"/><stop stop-opacity="1" stop-color="rgb(62.463379%, 24.067688%, 9.378052%)" offset="0.960938"/><stop stop-opacity="1" stop-color="rgb(62.158203%, 23.970032%, 9.454346%)" offset="0.96875"/><stop stop-opacity="1" stop-color="rgb(61.851501%, 23.872375%, 9.53064%)" offset="0.976562"/><stop stop-opacity="1" stop-color="rgb(61.5448%, 23.774719%, 9.606934%)" offset="0.984375"/><stop stop-opacity="1" stop-color="rgb(61.238098%, 23.675537%, 9.684753%)" offset="0.992188"/><stop stop-opacity="1" stop-color="rgb(60.931396%, 23.577881%, 9.761047%)" offset="1"/></linearGradient><mask id="3de83b9472"><g filter="url(#4e6809bf6b)"><rect x="-144" width="1728" fill="#000000" y="-80.999999" height="971.999992" fill-opacity="0.45"/></g></mask><clipPath id="c7c06afcff"><path d="M 0 0 L 742.269531 0 L 742.269531 810 L 0 810 Z M 0 0 " clip-rule="nonzero"/></clipPath><clipPath id="8472a7dbae"><rect x="0" width="744" y="0" height="810"/></clipPath><clipPath id="65e833bc75"><path d="M 118.621094 494.476562 L 868.621094 494.476562 L 868.621094 810 L 118.621094 810 Z M 118.621094 494.476562 " clip-rule="nonzero"/></clipPath><clipPath id="2cf54bb841"><path d="M 765.21875 494.476562 L 1440 494.476562 L 1440 810 L 765.21875 810 Z M 765.21875 494.476562 " clip-rule="nonzero"/></clipPath><clipPath id="c97a7f4280"><path d="M 959.105469 566.070312 L 972.605469 566.070312 L 972.605469 575.820312 L 959.105469 575.820312 Z M 959.105469 566.070312 " clip-rule="nonzero"/></clipPath></defs><rect x="-144" width="1728" fill="#ffffff" y="-80.999999" height="971.999992" fill-opacity="1"/><rect x="-144" fill="url(#f26ebef2ee)" width="1728" y="-80.999999" height="971.999992"/><g mask="url(#3de83b9472)"><g transform="matrix(1, 0, 0, 1, 0, 0.000000000000039746)"><g clip-path="url(#8472a7dbae)"><g clip-path="url(#c7c06afcff)"><path fill="#ffba7d" d="M 572.449219 210.445312 L 414.449219 119.226562 L 414.449219 301.671875 Z M 574.429688 554.648438 L 414.460938 462.285156 L 414.460938 493.269531 L 574.429688 585.632812 Z M 414.464844 453.121094 L 574.429688 545.480469 L 574.429688 516.785156 L 414.460938 424.429688 Z M 574.429688 478.925781 L 414.460938 386.566406 L 414.460938 415.269531 L 574.429688 507.617188 Z M 574.429688 441.066406 L 414.460938 348.703125 L 414.460938 377.402344 L 574.429688 469.761719 Z M 574.429688 400.902344 C 521.097656 370.160156 467.78125 339.324219 414.460938 308.542969 L 414.460938 339.546875 L 574.429688 431.894531 Z M 494.449219 -28.476562 C 522.449219 -12.351562 550.433594 3.824219 578.40625 19.996094 L 578.40625 119.226562 L 408.507812 21.136719 Z M 494.449219 66.175781 L 572.453125 21.136719 L 494.449219 -23.898438 L 416.441406 21.136719 Z M 574.429688 24.574219 L 498.410156 68.464844 L 574.429688 112.355469 Z M -81.363281 289.617188 L -241.332031 197.257812 L -241.332031 225.953125 L -81.363281 318.3125 Z M -81.363281 251.753906 L -241.332031 159.394531 L -241.332031 188.089844 L -81.363281 280.445312 Z M -81.363281 213.882812 L -241.332031 121.523438 L -241.332031 150.230469 L -81.363281 242.589844 Z M -52.535156 192.667969 L -212.519531 100.300781 L -237.371094 114.644531 L -77.386719 207.011719 Z M -19.75 173.738281 L -179.734375 81.371094 L -204.582031 95.714844 L -44.601562 188.082031 Z M 80.613281 115.796875 L -79.375 23.429688 L -106.210938 38.921875 L 53.773438 131.289062 Z M -77.386719 321.753906 L -12.808594 359.039062 L 14.023438 343.542969 L -77.386719 290.765625 Z M -51.550781 381.402344 L -77.386719 366.488281 L -77.386719 396.320312 Z M -77.386719 359.613281 L -45.597656 377.964844 L -18.761719 362.472656 L -77.386719 328.625 Z M 246.527344 363.046875 L 86.5625 270.6875 L 86.5625 303.960938 L 246.527344 396.324219 Z M 246.527344 325.183594 L 86.5625 232.824219 L 86.5625 266.101562 L 246.527344 358.460938 Z M 246.527344 287.324219 L 86.5625 194.964844 L 86.5625 228.242188 L 246.527344 320.601562 Z M -9.867188 361.882812 L 150.148438 454.269531 L 178.972656 437.632812 L 18.945312 345.242188 Z M 113.390625 475.488281 L -46.605469 383.113281 L -75.410156 399.757812 L 84.578125 492.125 Z M -42.640625 380.816406 L 117.363281 473.199219 L 146.179688 456.5625 L -13.835938 364.171875 Z M -81.363281 365.339844 L -241.332031 272.980469 L -241.332031 303.96875 L -81.363281 396.320312 Z M -241.332031 263.8125 L -81.363281 356.167969 L -81.363281 327.476562 L -241.332031 235.117188 Z M 13.039062 154.808594 L -146.945312 62.441406 L -171.796875 76.789062 L -11.8125 169.152344 Z M -139.007812 57.851562 L 20.972656 150.222656 L 45.839844 135.871094 L -114.148438 43.503906 Z M 46.816406 324.617188 L -77.386719 252.902344 L -77.386719 283.894531 L 19.984375 340.105469 Z M -77.386719 246.03125 L 52.769531 321.179688 L 79.609375 305.675781 L -77.386719 215.035156 Z M 82.582031 193.8125 L 17.996094 156.519531 L -8.84375 172.011719 L 82.582031 224.796875 Z M 56.726562 134.160156 L 82.582031 149.085938 L 82.582031 119.230469 Z M 82.582031 155.949219 L 50.789062 137.589844 L 23.949219 153.085938 L 82.582031 186.9375 Z M -41.636719 190.949219 L 82.582031 262.664062 L 82.582031 231.675781 L -14.796875 175.449219 Z M 82.582031 269.527344 L -47.578125 194.378906 L -74.417969 209.875 L 82.582031 300.519531 Z M 211.761719 418.695312 L 51.746094 326.316406 L 22.917969 342.953125 L 182.9375 435.339844 Z M 55.71875 324.027344 L 215.722656 416.40625 L 244.554688 399.765625 L 84.570312 307.394531 Z M 246.527344 249.464844 L 86.5625 157.105469 L 86.5625 190.378906 L 246.527344 282.738281 Z M 86.5625 152.519531 L 246.527344 244.882812 L 246.527344 211.585938 L 86.5625 119.226562 Z M 88.535156 115.796875 L 248.519531 208.160156 L 408.507812 115.796875 L 248.519531 23.429688 Z M -323.3125 540.59375 C -323.3125 572.910156 -323.359375 605.226562 -323.304688 637.542969 L -409.238281 687.152344 C -409.277344 621.765625 -409.25 556.375 -409.25 490.984375 Z M -329.25 636.394531 L -405.277344 592.496094 L -405.277344 680.289062 Z M -405.277344 587.925781 L -327.265625 632.96875 L -327.273438 542.878906 L -405.289062 497.84375 Z M -323.304688 159.6875 L -323.304688 261.21875 L -411.230469 210.449219 Z M -327.285156 166.554688 L -403.304688 210.445312 L -327.285156 254.335938 Z M 84.574219 -75.800781 C 113.234375 -59.296875 141.871094 -42.730469 170.511719 -26.183594 C 141.867188 -9.648438 113.203125 6.863281 84.574219 23.429688 C 55.945312 6.863281 27.277344 -9.648438 -1.359375 -26.183594 Z M 84.574219 -71.21875 L 6.5625 -26.183594 L 84.574219 18.855469 L 162.582031 -26.183594 Z M 82.585938 495.558594 L -77.386719 403.195312 L -77.386719 587.925781 L 82.585938 680.285156 Z M 246.542969 774.949219 L 246.546875 587.925781 L 408.503906 494.410156 L 248.515625 402.046875 C 194.484375 433.140625 140.570312 464.425781 86.5625 495.554688 L 86.5625 682.585938 Z M 250.507812 629.238281 L 250.507812 660.222656 L 410.480469 567.859375 L 410.480469 536.871094 Z M 410.480469 497.851562 L 250.507812 590.21875 L 250.507812 622.359375 L 410.480469 529.996094 Z M 250.507812 698.078125 L 410.480469 605.71875 L 410.480469 574.734375 L 250.507812 667.097656 Z M 250.507812 735.945312 L 410.480469 643.582031 L 410.480469 612.59375 L 250.507812 704.957031 Z M 410.480469 650.453125 L 250.503906 742.820312 L 250.503906 774.949219 L 410.480469 682.585938 Z M -108.203125 418.691406 L -108.195312 603.421875 L -81.34375 587.925781 L -81.351562 403.195312 Z M -140.996094 437.625 L -140.996094 622.359375 L -116.125 607.996094 L -116.128906 423.265625 Z M -173.789062 456.554688 L -173.789062 641.292969 L -148.914062 626.933594 L -148.917969 442.195312 Z M -206.574219 475.484375 L -206.574219 660.222656 L -181.707031 645.863281 L -181.710938 461.132812 Z M -241.332031 680.289062 L -214.488281 664.796875 L -214.5 480.0625 L -241.332031 495.554688 Z M -51.542969 760.027344 L -211.519531 667.660156 L -239.351562 683.726562 L -79.371094 776.089844 Z M -205.566406 664.222656 L -45.59375 756.585938 L -18.757812 741.09375 L -178.738281 648.730469 Z M -107.191406 607.425781 L 52.777344 699.785156 L 80.605469 683.726562 L -79.367188 591.359375 Z M 14.03125 722.164062 L -145.945312 629.796875 L -172.785156 645.296875 L -12.804688 737.65625 Z M -139.992188 626.367188 L 19.984375 718.726562 L 46.824219 703.226562 L -113.148438 610.863281 Z M -165.308594 825.703125 L -241.332031 781.816406 L -241.332031 869.597656 Z M -157.378906 825.707031 L -245.308594 876.476562 L -245.308594 774.949219 Z M 408.507812 873.027344 L 250.503906 781.808594 L 250.507812 964.253906 Z M -46.582031 984.332031 L 113.398438 891.957031 L 84.574219 875.320312 L -75.410156 967.691406 Z M 51.789062 1041.125 L 211.78125 948.761719 L 182.953125 932.117188 L 22.96875 1024.488281 Z M 215.742188 951.050781 L 55.757812 1043.414062 L 84.578125 1060.058594 L 244.566406 967.691406 Z M -13.785156 1003.265625 L 146.199219 910.898438 L 117.367188 894.253906 L -42.617188 986.621094 Z M 150.164062 913.1875 L -9.816406 1005.554688 L 19 1022.199219 L 178.984375 929.828125 Z M 410.488281 119.226562 L 250.511719 211.585938 L 250.511719 398.617188 L 410.480469 490.976562 C 410.480469 367.046875 410.488281 243.152344 410.488281 119.226562 Z M 252.484375 778.386719 L 416.4375 873.039062 C 305.835938 936.925781 195.234375 1000.824219 84.578125 1064.628906 C 28.597656 1032.351562 -27.363281 1000.019531 -83.328125 967.691406 C -27.367188 935.363281 28.640625 903.113281 84.574219 870.753906 L 246.546875 964.257812 C 246.546875 902.679688 246.578125 841.105469 246.542969 779.527344 C 192.527344 748.410156 138.546875 717.210938 84.574219 686.011719 L -79.371094 780.671875 C -134.738281 748.839844 -190.015625 716.824219 -245.3125 684.867188 L -245.3125 495.546875 L -411.222656 399.757812 L -245.3125 303.96875 L -245.3125 114.65625 C -190 82.71875 -134.734375 50.691406 -79.367188 18.855469 L 84.578125 113.503906 L 248.515625 18.855469 C 359.226562 82.5625 469.757812 146.589844 580.382812 210.449219 L 416.4375 305.109375 L 576.414062 397.472656 L 742.347656 301.679688 C 742.347656 367.070312 742.382812 432.460938 742.339844 497.847656 C 687.695312 466.304688 633.066406 434.726562 578.40625 403.195312 L 578.40625 592.511719 C 523.761719 560.964844 469.089844 529.433594 414.453125 497.851562 L 414.453125 684.867188 C 360.488281 716.058594 306.511719 747.269531 252.484375 778.386719 Z M -83.332031 399.757812 L -243.320312 307.394531 L -403.304688 399.757812 L -243.316406 492.125 C -189.988281 461.339844 -136.660156 430.546875 -83.332031 399.757812 Z M 738.386719 308.535156 L 580.382812 399.757812 L 738.382812 490.980469 L 738.386719 308.535156 " fill-opacity="1" fill-rule="nonzero"/></g></g></g></g><g clip-path="url(#65e833bc75)"><path fill="#b4b4b4" d="M 758.386719 680.644531 L 655.625 621.316406 L 655.625 739.972656 Z M 759.671875 904.507812 L 655.632812 844.433594 L 655.632812 864.585938 L 759.671875 924.65625 Z M 655.636719 838.472656 L 759.671875 898.542969 L 759.671875 879.878906 L 655.632812 819.8125 Z M 759.671875 855.257812 L 655.632812 795.191406 L 655.632812 813.855469 L 759.671875 873.917969 Z M 759.671875 830.632812 L 655.632812 770.5625 L 655.632812 789.226562 L 759.671875 849.296875 Z M 759.671875 804.511719 C 724.988281 784.519531 690.308594 764.464844 655.632812 744.445312 L 655.632812 764.605469 L 759.671875 824.667969 Z M 707.652344 525.253906 C 725.867188 535.742188 744.066406 546.261719 762.257812 556.78125 L 762.257812 621.316406 L 651.761719 557.519531 Z M 707.652344 586.8125 L 758.386719 557.519531 L 707.652344 528.230469 L 656.921875 557.519531 Z M 759.671875 559.757812 L 710.230469 588.300781 L 759.671875 616.847656 Z M 333.160156 732.132812 L 229.121094 672.066406 L 229.121094 690.730469 L 333.160156 750.796875 Z M 333.160156 707.511719 L 229.121094 647.441406 L 229.121094 666.105469 L 333.160156 726.171875 Z M 333.160156 682.878906 L 229.121094 622.8125 L 229.121094 641.480469 L 333.160156 701.550781 Z M 351.910156 669.082031 L 247.859375 609.007812 L 231.695312 618.335938 L 335.746094 678.410156 Z M 373.234375 656.769531 L 269.183594 596.695312 L 253.023438 606.023438 L 357.070312 666.097656 Z M 438.507812 619.085938 L 334.453125 559.011719 L 317 569.089844 L 421.050781 629.164062 Z M 335.746094 753.035156 L 377.746094 777.285156 L 395.199219 767.207031 L 335.746094 732.882812 Z M 352.550781 791.832031 L 335.746094 782.128906 L 335.746094 801.53125 Z M 335.746094 777.65625 L 356.421875 789.59375 L 373.875 779.519531 L 335.746094 757.507812 Z M 546.414062 779.890625 L 442.375 719.824219 L 442.375 741.464844 L 546.414062 801.535156 Z M 546.414062 755.265625 L 442.375 695.199219 L 442.375 716.84375 L 546.414062 776.910156 Z M 546.414062 730.644531 L 442.375 670.574219 L 442.375 692.21875 L 546.414062 752.285156 Z M 379.660156 779.136719 L 483.730469 839.222656 L 502.476562 828.402344 L 398.398438 768.3125 Z M 459.824219 853.023438 L 355.765625 792.941406 L 337.03125 803.769531 L 441.085938 863.84375 Z M 358.34375 791.449219 L 462.40625 851.53125 L 481.148438 840.710938 L 377.078125 780.625 Z M 333.160156 781.382812 L 229.121094 721.3125 L 229.121094 741.46875 L 333.160156 801.53125 Z M 229.121094 715.351562 L 333.160156 775.417969 L 333.160156 756.757812 L 229.121094 696.691406 Z M 394.558594 644.457031 L 290.507812 584.382812 L 274.34375 593.714844 L 378.394531 653.789062 Z M 295.671875 581.402344 L 399.71875 641.476562 L 415.890625 632.144531 L 311.835938 572.070312 Z M 416.527344 754.898438 L 335.746094 708.257812 L 335.746094 728.414062 L 399.074219 764.96875 Z M 335.746094 703.789062 L 420.398438 752.660156 L 437.851562 742.578125 L 335.746094 683.628906 Z M 439.789062 669.828125 L 397.78125 645.574219 L 380.324219 655.648438 L 439.789062 689.980469 Z M 422.972656 631.03125 L 439.789062 640.738281 L 439.789062 621.320312 Z M 439.789062 645.199219 L 419.109375 633.261719 L 401.652344 643.339844 L 439.789062 665.355469 Z M 359 667.964844 L 439.789062 714.605469 L 439.789062 694.453125 L 376.453125 657.882812 Z M 439.789062 719.070312 L 355.132812 670.195312 L 337.675781 680.273438 L 439.789062 739.226562 Z M 523.804688 816.085938 L 419.730469 756.003906 L 400.980469 766.824219 L 505.054688 826.910156 Z M 422.3125 754.515625 L 526.378906 814.597656 L 545.128906 803.773438 L 441.078125 743.695312 Z M 546.414062 706.023438 L 442.375 645.953125 L 442.375 667.59375 L 546.414062 727.664062 Z M 442.375 642.96875 L 546.414062 703.042969 L 546.414062 681.386719 L 442.375 621.316406 Z M 443.660156 619.085938 L 547.710938 679.160156 L 651.761719 619.085938 L 547.710938 559.011719 Z M 175.804688 895.363281 C 175.804688 916.382812 175.773438 937.402344 175.808594 958.417969 L 119.917969 990.679688 C 119.894531 948.15625 119.910156 905.628906 119.910156 863.101562 Z M 171.941406 957.667969 L 122.492188 929.121094 L 122.492188 986.21875 Z M 122.492188 926.148438 L 173.230469 955.441406 L 173.226562 896.851562 L 122.488281 867.5625 Z M 175.808594 647.632812 L 175.808594 713.664062 L 118.621094 680.648438 Z M 173.21875 652.097656 L 123.777344 680.644531 L 173.21875 709.191406 Z M 441.082031 494.476562 C 459.722656 505.210938 478.347656 515.984375 496.976562 526.746094 C 478.34375 537.5 459.703125 548.238281 441.082031 559.011719 C 422.464844 548.238281 403.820312 537.5 385.195312 526.746094 Z M 441.082031 497.457031 L 390.347656 526.746094 L 441.082031 556.039062 L 491.816406 526.746094 Z M 439.789062 866.074219 L 335.746094 806.003906 L 335.746094 926.148438 L 439.789062 986.214844 Z M 546.421875 1047.785156 L 546.425781 926.148438 L 651.757812 865.328125 L 547.707031 805.257812 C 512.566406 825.480469 477.5 845.828125 442.375 866.074219 L 442.375 987.710938 Z M 549 953.015625 L 549 973.167969 L 653.042969 913.097656 L 653.042969 892.945312 Z M 653.042969 867.566406 L 549 927.636719 L 549 948.542969 L 653.042969 888.472656 Z M 549 997.789062 L 653.042969 937.71875 L 653.042969 917.570312 L 549 977.640625 Z M 549 1022.414062 L 653.042969 962.34375 L 653.042969 942.191406 L 549 1002.261719 Z M 653.042969 966.8125 L 549 1026.886719 L 549 1047.785156 L 653.042969 987.710938 Z M 315.707031 816.082031 L 315.707031 936.226562 L 333.171875 926.148438 L 333.167969 806.003906 Z M 294.375 828.394531 L 294.375 948.542969 L 310.554688 939.199219 L 310.550781 819.058594 Z M 273.046875 840.707031 L 273.046875 960.855469 L 289.226562 951.519531 L 289.222656 831.371094 Z M 251.726562 853.019531 L 251.726562 973.167969 L 267.898438 963.832031 L 267.898438 843.683594 Z M 229.121094 986.21875 L 246.578125 976.140625 L 246.574219 855.996094 L 229.121094 866.074219 Z M 352.554688 1038.078125 L 248.507812 978.007812 L 230.410156 988.453125 L 334.457031 1048.527344 Z M 252.382812 975.769531 L 356.425781 1035.839844 L 373.878906 1025.765625 L 269.832031 965.695312 Z M 316.363281 938.832031 L 420.402344 998.898438 L 438.5 988.453125 L 334.460938 928.378906 Z M 395.203125 1013.453125 L 291.15625 953.378906 L 273.703125 963.460938 L 377.75 1023.53125 Z M 295.03125 951.148438 L 399.074219 1011.21875 L 416.53125 1001.136719 L 312.488281 941.066406 Z M 278.566406 1080.792969 L 229.121094 1052.25 L 229.121094 1109.339844 Z M 283.722656 1080.796875 L 226.535156 1113.8125 L 226.535156 1047.785156 Z M 651.761719 1111.570312 L 549 1052.246094 L 549 1170.902344 Z M 355.78125 1183.960938 L 459.828125 1123.882812 L 441.082031 1113.0625 L 337.03125 1173.136719 Z M 419.757812 1220.898438 L 523.816406 1160.824219 L 505.066406 1150.003906 L 401.015625 1210.078125 Z M 526.390625 1162.316406 L 422.339844 1222.386719 L 441.085938 1233.210938 L 545.140625 1173.136719 Z M 377.109375 1196.277344 L 481.160156 1136.203125 L 462.410156 1125.375 L 358.359375 1185.449219 Z M 483.738281 1137.691406 L 379.691406 1197.765625 L 398.433594 1208.589844 L 502.484375 1148.515625 Z M 653.046875 621.316406 L 549.003906 681.386719 L 549.003906 803.027344 L 653.042969 863.09375 C 653.042969 782.492188 653.046875 701.914062 653.046875 621.316406 Z M 550.289062 1050.019531 L 656.917969 1111.578125 C 584.984375 1153.128906 513.054688 1194.6875 441.085938 1236.183594 C 404.675781 1215.191406 368.28125 1194.164062 331.882812 1173.136719 C 368.277344 1152.113281 404.703125 1131.136719 441.082031 1110.089844 L 546.425781 1170.90625 C 546.425781 1130.855469 546.445312 1090.808594 546.421875 1050.761719 C 511.292969 1030.523438 476.183594 1010.234375 441.082031 989.941406 L 334.457031 1051.507812 C 298.445312 1030.804688 262.496094 1009.980469 226.53125 989.195312 L 226.53125 866.066406 L 118.628906 803.769531 L 226.53125 741.46875 L 226.53125 618.347656 C 262.507812 597.574219 298.449219 576.742188 334.460938 556.039062 L 441.085938 617.59375 L 547.707031 556.039062 C 619.707031 597.472656 691.597656 639.113281 763.542969 680.648438 L 656.917969 742.210938 L 760.964844 802.28125 L 868.882812 739.980469 C 868.882812 782.507812 868.90625 825.035156 868.878906 867.5625 C 833.339844 847.050781 797.808594 826.511719 762.257812 806.003906 L 762.257812 929.128906 C 726.71875 908.613281 691.164062 888.105469 655.628906 867.566406 L 655.628906 989.195312 C 620.527344 1009.480469 585.425781 1029.78125 550.289062 1050.019531 Z M 331.878906 803.769531 L 227.828125 743.695312 L 123.777344 803.769531 L 227.832031 863.84375 C 262.511719 843.820312 297.199219 823.792969 331.878906 803.769531 Z M 866.308594 744.4375 L 763.542969 803.769531 L 866.304688 863.097656 L 866.308594 744.4375 " fill-opacity="1" fill-rule="nonzero"/></g><g clip-path="url(#2cf54bb841)"><path fill="#b4b4b4" d="M 1404.984375 680.644531 L 1302.222656 621.316406 L 1302.222656 739.972656 Z M 1406.269531 904.507812 L 1302.230469 844.433594 L 1302.230469 864.585938 L 1406.269531 924.65625 Z M 1302.234375 838.472656 L 1406.269531 898.542969 L 1406.269531 879.878906 L 1302.230469 819.8125 Z M 1406.269531 855.257812 L 1302.230469 795.191406 L 1302.230469 813.855469 L 1406.269531 873.917969 Z M 1406.269531 830.632812 L 1302.230469 770.5625 L 1302.230469 789.226562 L 1406.269531 849.296875 Z M 1406.269531 804.511719 C 1371.585938 784.519531 1336.910156 764.464844 1302.230469 744.445312 L 1302.230469 764.605469 L 1406.269531 824.667969 Z M 1354.253906 525.253906 C 1372.464844 535.742188 1390.664062 546.261719 1408.859375 556.78125 L 1408.859375 621.316406 L 1298.359375 557.519531 Z M 1354.253906 586.8125 L 1404.988281 557.519531 L 1354.253906 528.230469 L 1303.519531 557.519531 Z M 1406.269531 559.757812 L 1356.828125 588.300781 L 1406.269531 616.847656 Z M 979.757812 732.132812 L 875.71875 672.066406 L 875.71875 690.730469 L 979.757812 750.796875 Z M 979.757812 707.511719 L 875.71875 647.441406 L 875.71875 666.105469 L 979.757812 726.171875 Z M 979.757812 682.878906 L 875.71875 622.8125 L 875.71875 641.480469 L 979.757812 701.550781 Z M 998.507812 669.082031 L 894.457031 609.007812 L 878.292969 618.335938 L 982.34375 678.410156 Z M 1019.832031 656.769531 L 915.78125 596.695312 L 899.621094 606.023438 L 1003.667969 666.097656 Z M 1085.105469 619.085938 L 981.050781 559.011719 L 963.597656 569.089844 L 1067.648438 629.164062 Z M 982.34375 753.035156 L 1024.34375 777.285156 L 1041.796875 767.207031 L 982.34375 732.882812 Z M 999.148438 791.832031 L 982.34375 782.128906 L 982.34375 801.53125 Z M 982.34375 777.65625 L 1003.019531 789.59375 L 1020.472656 779.519531 L 982.34375 757.507812 Z M 1193.011719 779.890625 L 1088.972656 719.824219 L 1088.972656 741.464844 L 1193.011719 801.535156 Z M 1193.011719 755.265625 L 1088.972656 695.199219 L 1088.972656 716.84375 L 1193.011719 776.910156 Z M 1193.011719 730.644531 L 1088.972656 670.574219 L 1088.972656 692.21875 L 1193.011719 752.285156 Z M 1026.257812 779.136719 L 1130.328125 839.222656 L 1149.074219 828.402344 L 1044.996094 768.3125 Z M 1106.421875 853.023438 L 1002.363281 792.941406 L 983.632812 803.769531 L 1087.683594 863.84375 Z M 1004.945312 791.449219 L 1109.003906 851.53125 L 1127.746094 840.710938 L 1023.675781 780.625 Z M 979.757812 781.382812 L 875.71875 721.3125 L 875.71875 741.46875 L 979.757812 801.53125 Z M 875.71875 715.351562 L 979.757812 775.417969 L 979.757812 756.757812 L 875.71875 696.691406 Z M 1041.15625 644.457031 L 937.105469 584.382812 L 920.941406 593.714844 L 1024.992188 653.789062 Z M 942.269531 581.402344 L 1046.316406 641.476562 L 1062.488281 632.144531 L 958.433594 572.070312 Z M 1063.125 754.898438 L 982.34375 708.257812 L 982.34375 728.414062 L 1045.671875 764.96875 Z M 982.34375 703.789062 L 1066.996094 752.660156 L 1084.453125 742.578125 L 982.34375 683.628906 Z M 1086.386719 669.828125 L 1044.378906 645.574219 L 1026.925781 655.648438 L 1086.386719 689.980469 Z M 1069.570312 631.03125 L 1086.386719 640.738281 L 1086.386719 621.320312 Z M 1086.386719 645.199219 L 1065.707031 633.261719 L 1048.25 643.339844 L 1086.386719 665.355469 Z M 1005.597656 667.964844 L 1086.386719 714.605469 L 1086.386719 694.453125 L 1023.050781 657.882812 Z M 1086.386719 719.070312 L 1001.730469 670.195312 L 984.277344 680.273438 L 1086.386719 739.226562 Z M 1170.402344 816.085938 L 1066.332031 756.003906 L 1047.578125 766.824219 L 1151.652344 826.910156 Z M 1068.914062 754.515625 L 1172.976562 814.597656 L 1191.726562 803.773438 L 1087.679688 743.695312 Z M 1193.011719 706.023438 L 1088.972656 645.953125 L 1088.972656 667.59375 L 1193.011719 727.664062 Z M 1088.972656 642.96875 L 1193.011719 703.042969 L 1193.011719 681.386719 L 1088.972656 621.316406 Z M 1090.257812 619.085938 L 1194.308594 679.160156 L 1298.359375 619.085938 L 1194.308594 559.011719 Z M 822.402344 895.363281 C 822.402344 916.382812 822.371094 937.402344 822.40625 958.417969 L 766.515625 990.679688 C 766.492188 948.15625 766.511719 905.628906 766.511719 863.101562 Z M 818.539062 957.667969 L 769.09375 929.121094 L 769.09375 986.21875 Z M 769.09375 926.148438 L 819.828125 955.441406 L 819.828125 896.851562 L 769.085938 867.5625 Z M 822.40625 647.632812 L 822.40625 713.664062 L 765.21875 680.648438 Z M 819.816406 652.097656 L 770.375 680.644531 L 819.816406 709.191406 Z M 1087.679688 494.476562 C 1106.320312 505.210938 1124.945312 515.984375 1143.574219 526.746094 C 1124.941406 537.5 1106.300781 548.238281 1087.679688 559.011719 C 1069.0625 548.238281 1050.417969 537.5 1031.792969 526.746094 Z M 1087.679688 497.457031 L 1036.945312 526.746094 L 1087.679688 556.039062 L 1138.414062 526.746094 Z M 1086.390625 866.074219 L 982.34375 806.003906 L 982.34375 926.148438 L 1086.390625 986.214844 Z M 1193.019531 1047.785156 L 1193.023438 926.148438 L 1298.359375 865.328125 L 1194.304688 805.257812 C 1159.164062 825.480469 1124.097656 845.828125 1088.972656 866.074219 L 1088.972656 987.710938 Z M 1195.601562 953.015625 L 1195.601562 973.167969 L 1299.640625 913.097656 L 1299.640625 892.945312 Z M 1299.640625 867.566406 L 1195.601562 927.636719 L 1195.601562 948.542969 L 1299.640625 888.472656 Z M 1195.601562 997.789062 L 1299.640625 937.71875 L 1299.640625 917.570312 L 1195.601562 977.640625 Z M 1195.601562 1022.414062 L 1299.640625 962.34375 L 1299.640625 942.191406 L 1195.601562 1002.261719 Z M 1299.640625 966.8125 L 1195.597656 1026.886719 L 1195.597656 1047.785156 L 1299.640625 987.710938 Z M 962.304688 816.082031 L 962.308594 936.226562 L 979.769531 926.148438 L 979.765625 806.003906 Z M 940.972656 828.394531 L 940.972656 948.542969 L 957.152344 939.199219 L 957.148438 819.058594 Z M 919.648438 840.707031 L 919.648438 960.855469 L 935.824219 951.519531 L 935.820312 831.371094 Z M 898.324219 853.019531 L 898.324219 973.167969 L 914.496094 963.832031 L 914.496094 843.683594 Z M 875.71875 986.21875 L 893.175781 976.140625 L 893.171875 855.996094 L 875.71875 866.074219 Z M 999.152344 1038.078125 L 895.109375 978.007812 L 877.007812 988.453125 L 981.054688 1048.527344 Z M 898.980469 975.769531 L 1003.023438 1035.839844 L 1020.476562 1025.765625 L 916.429688 965.695312 Z M 962.960938 938.832031 L 1067 998.898438 L 1085.097656 988.453125 L 981.058594 928.378906 Z M 1041.800781 1013.453125 L 937.757812 953.378906 L 920.300781 963.460938 L 1024.347656 1023.53125 Z M 941.628906 951.148438 L 1045.671875 1011.21875 L 1063.128906 1001.136719 L 959.085938 941.066406 Z M 925.164062 1080.792969 L 875.71875 1052.25 L 875.71875 1109.339844 Z M 930.320312 1080.796875 L 873.132812 1113.8125 L 873.132812 1047.785156 Z M 1298.359375 1111.570312 L 1195.597656 1052.246094 L 1195.601562 1170.902344 Z M 1002.378906 1183.960938 L 1106.425781 1123.882812 L 1087.679688 1113.0625 L 983.632812 1173.136719 Z M 1066.355469 1220.898438 L 1170.414062 1160.824219 L 1151.664062 1150.003906 L 1047.613281 1210.078125 Z M 1172.988281 1162.316406 L 1068.9375 1222.386719 L 1087.683594 1233.210938 L 1191.738281 1173.136719 Z M 1023.710938 1196.277344 L 1127.757812 1136.203125 L 1109.007812 1125.375 L 1004.957031 1185.449219 Z M 1130.339844 1137.691406 L 1026.289062 1197.765625 L 1045.03125 1208.589844 L 1149.082031 1148.515625 Z M 1299.648438 621.316406 L 1195.601562 681.386719 L 1195.601562 803.027344 L 1299.640625 863.09375 C 1299.640625 782.492188 1299.648438 701.914062 1299.648438 621.316406 Z M 1196.886719 1050.019531 L 1303.515625 1111.578125 C 1231.582031 1153.128906 1159.652344 1194.6875 1087.683594 1236.183594 C 1051.277344 1215.191406 1014.878906 1194.164062 978.480469 1173.136719 C 1014.875 1152.113281 1051.300781 1131.136719 1087.679688 1110.089844 L 1193.023438 1170.90625 C 1193.023438 1130.855469 1193.042969 1090.808594 1193.019531 1050.761719 C 1157.890625 1030.523438 1122.78125 1010.234375 1087.679688 989.941406 L 981.054688 1051.507812 C 945.046875 1030.804688 909.09375 1009.980469 873.128906 989.195312 L 873.128906 866.066406 L 765.226562 803.769531 L 873.128906 741.46875 L 873.128906 618.347656 C 909.105469 597.574219 945.046875 576.742188 981.058594 556.039062 L 1087.683594 617.59375 L 1194.304688 556.039062 C 1266.308594 597.472656 1338.195312 639.113281 1410.140625 680.648438 L 1303.515625 742.210938 L 1407.5625 802.28125 L 1515.480469 739.980469 C 1515.480469 782.507812 1515.503906 825.035156 1515.476562 867.5625 C 1479.9375 847.050781 1444.40625 826.511719 1408.859375 806.003906 L 1408.859375 929.128906 C 1373.316406 908.613281 1337.761719 888.105469 1302.226562 867.566406 L 1302.226562 989.195312 C 1267.128906 1009.480469 1232.023438 1029.78125 1196.886719 1050.019531 Z M 978.480469 803.769531 L 874.425781 743.695312 L 770.375 803.769531 L 874.429688 863.84375 C 909.109375 843.820312 943.796875 823.792969 978.480469 803.769531 Z M 1512.90625 744.4375 L 1410.140625 803.769531 L 1512.902344 863.097656 L 1512.90625 744.4375 " fill-opacity="1" fill-rule="nonzero"/></g><g clip-path="url(#c97a7f4280)"><path fill="#8f8f8f" d="M 972.304688 570.367188 C 971.894531 569.710938 971.027344 568.550781 969.679688 567.671875 L 970.421875 566.925781 C 970.609375 566.742188 970.609375 566.441406 970.421875 566.253906 C 970.238281 566.070312 969.9375 566.070312 969.753906 566.253906 L 961.183594 574.824219 C 961 575.007812 961 575.308594 961.183594 575.492188 C 961.277344 575.585938 961.398438 575.632812 961.519531 575.632812 C 961.640625 575.632812 961.761719 575.585938 961.855469 575.492188 L 962.785156 574.5625 C 963.636719 574.96875 964.640625 575.238281 965.804688 575.238281 C 969.5 575.238281 971.585938 572.53125 972.304688 571.378906 C 972.496094 571.070312 972.496094 570.675781 972.304688 570.367188 Z M 965.804688 573.722656 C 965.1875 573.722656 964.621094 573.523438 964.15625 573.191406 L 965.191406 572.15625 C 965.378906 572.246094 965.585938 572.296875 965.804688 572.296875 C 966.589844 572.296875 967.226562 571.660156 967.226562 570.875 C 967.226562 570.65625 967.175781 570.449219 967.085938 570.261719 L 968.121094 569.226562 C 968.453125 569.691406 968.652344 570.257812 968.652344 570.875 C 968.652344 572.449219 967.378906 573.722656 965.804688 573.722656 Z M 963.058594 571.617188 C 962.992188 571.378906 962.957031 571.132812 962.957031 570.875 C 962.957031 569.300781 964.230469 568.027344 965.804688 568.027344 C 966.0625 568.027344 966.308594 568.0625 966.546875 568.128906 L 967.859375 566.816406 C 967.238281 566.625 966.554688 566.511719 965.804688 566.511719 C 962.105469 566.511719 960.023438 569.21875 959.304688 570.367188 C 959.109375 570.675781 959.109375 571.070312 959.304688 571.378906 C 959.628906 571.902344 960.242188 572.746094 961.160156 573.515625 Z M 963.058594 571.617188 " fill-opacity="1" fill-rule="nonzero"/></g></svg>